<svg xmlns="http://www.w3.org/2000/svg" viewBox="0 0 120 120" fill="none">
  <path d="M40 24 h32 l12 12 v54 a6 6 0 0 1 -6 6 H40 a6 6 0 0 1 -6 -6 V30 a6 6 0 0 1 6 -6 Z" fill="#1b1b1f"/>
  <path d="M40 24 h32 l12 12 v54 a6 6 0 0 1 -6 6 H40 a6 6 0 0 1 -6 -6 V30 a6 6 0 0 1 6 -6 Z" fill="none" stroke="#3a3a44" stroke-width="2"/>
  <g fill="#caa45a">
    <rect x="42" y="40" width="5" height="14" rx="1"/>
    <rect x="50" y="40" width="5" height="14" rx="1"/>
    <rect x="58" y="40" width="5" height="14" rx="1"/>
    <rect x="66" y="40" width="5" height="14" rx="1"/>
    <rect x="74" y="40" width="5" height="14" rx="1"/>
  </g>
  <text x="59" y="80" text-anchor="middle" fill="#ffffff" font-size="13" font-weight="700" font-family="sans-serif">256</text>
</svg>
